<svg xmlns="http://www.w3.org/2000/svg" xmlns:xlink="http://www.w3.org/1999/xlink" xml:space="preserve" version="1.1" style="shape-rendering:geometricPrecision;text-rendering:geometricPrecision;image-rendering:optimizeQuality;" viewBox="0 0 761 955" x="0px" y="0px" fill-rule="evenodd" clip-rule="evenodd"><defs><style type="text/css">
   
    .fil0 {fill:black;fill-rule:nonzero}
   
  </style></defs><g><path class="fil0" d="M79 0l120 0 0 133c0,32 26,58 58,58l254 0c32,0 59,-26 59,-58l0 -104 191 179 0 477c0,44 -35,79 -79,79l-603 0c-43,0 -79,-35 -79,-79l0 -606c0,-43 36,-79 79,-79zm83 37l-83 0c-23,0 -42,19 -42,42l0 606c0,23 19,43 42,43l603 0c23,0 43,-20 43,-43l0 -462 -119 -110 0 20c0,52 -42,95 -95,95l-254 0c-52,0 -95,-43 -95,-95l0 -96zm5 299l427 0c32,0 57,26 57,57l0 202c0,31 -25,57 -57,57l-427 0c-31,0 -57,-26 -57,-57l0 -202c0,-31 26,-57 57,-57zm427 37l-427 0c-11,0 -20,9 -20,20l0 202c0,11 9,20 20,20l427 0c11,0 20,-9 20,-20l0 -202c0,-11 -9,-20 -20,-20z"/><path class="fil0" d="M552 136c0,22 -18,40 -39,40l-260 0c-22,0 -39,-18 -39,-40l0 -131 338 0 0 131zm-37 0l0 -94 -265 0 0 94c0,2 2,3 3,3l260 0c1,0 2,-1 2,-3z"/><path class="fil0" d="M642 205c30,0 55,24 55,55 0,30 -25,55 -55,55 -31,0 -56,-25 -56,-55 0,-31 25,-55 56,-55zm0 27c-16,0 -28,13 -28,28 0,15 12,27 28,27 15,0 27,-12 27,-27 0,-15 -12,-28 -27,-28z"/></g></svg>