<svg xmlns:dc="http://purl.org/dc/elements/1.1/" xmlns:cc="http://creativecommons.org/ns#" xmlns:rdf="http://www.w3.org/1999/02/22-rdf-syntax-ns#" xmlns:svg="http://www.w3.org/2000/svg" xmlns="http://www.w3.org/2000/svg" xmlns:sodipodi="http://sodipodi.sourceforge.net/DTD/sodipodi-0.dtd" xmlns:inkscape="http://www.inkscape.org/namespaces/inkscape" version="1.1" x="0px" y="0px" viewBox="0 0 100 125"><g transform="translate(0,-952.36218)"><path style="font-size:medium;font-style:normal;font-variant:normal;font-weight:normal;font-stretch:normal;text-indent:0;text-align:start;text-decoration:none;line-height:normal;letter-spacing:normal;word-spacing:normal;text-transform:none;direction:ltr;block-progression:tb;writing-mode:lr-tb;text-anchor:start;baseline-shift:baseline;opacity:1;color:#000000;fill:#000000;fill-opacity:1;stroke:none;stroke-width:4.00000047999999970;marker:none;visibility:visible;display:inline;overflow:visible;enable-background:accumulate;font-family:Sans;-inkscape-font-specification:Sans" d="M 17.09375,958.36215 C 10.98079,958.36215 6,963.34425 6,969.45595 l 0,57.90625 c 0,2.9207 0.89462,5.6238 2.65625,7.6562 1.42504,1.6443 3.43323,2.7938 5.75,3.1876 1.29944,4.6827 5.60378,8.1562 10.6875,8.1562 l 57.8125,0 c 6.10466,0 11.09375,-4.9891 11.09375,-11.0938 l 0,-57.84375 c 0,-5.0838 -3.47348,-9.3641 -8.15625,-10.6563 -0.38738,-2.3152 -1.51739,-4.324 -3.15625,-5.75 -2.02595,-1.7626 -4.73496,-2.6562 -7.65625,-2.6562 l -57.71875,0 -0.21875,0 z m -0.0312,4 a 2.0001999,2.0001999 0 0 0 0.0312,0 l 57.9375,0 c 2.09696,0 3.83548,0.6471 5.03125,1.6875 0.70383,0.6124 1.17741,1.3985 1.5,2.3125 l -56.46875,0 C 18.98909,966.36215 14,971.31995 14,977.42465 l 0,56.46875 c -0.90179,-0.3256 -1.70606,-0.8002 -2.3125,-1.5 C 10.64456,1031.1902 10,1029.4577 10,1027.3622 l 0,-57.90625 c 0,-3.9532 3.11083,-7.0769 7.0625,-7.0938 z m 9.03125,8.0938 57.84375,0 c 0.02,0 0.0426,0 0.0625,0 3.42124,0.5157 6,3.3871 6,6.9687 l 0,57.84375 c 0,3.958 -3.13589,7.0938 -7.09375,7.0938 l -57.8125,0 c -3.51714,0 -6.37363,-2.4834 -6.96875,-5.8125 a 2.0001999,2.0001999 0 0 0 0,-0.031 2.0001999,2.0001999 0 0 0 0,-0.1874 l 0,-57.90635 c 0,-1.8647 0.95258,-3.8907 2.5,-5.4375 1.54742,-1.5468 3.60241,-2.5312 5.46875,-2.5312 z m 27.6875,7.875 A 2.0002002,2.0002002 0 0 0 52,980.36215 l 0,23.99995 -24,0 a 2.0002002,2.0002002 0 0 0 -0.1875,0 2.002246,2.002246 0 1 0 0.1875,4.0001 l 24,0 0,24 a 2.0002002,2.0002002 0 1 0 4,0 l 0,-24 24,0 a 2.0002002,2.0002002 0 1 0 0,-4.0001 l -24,0 0,-23.99995 a 2.0002002,2.0002002 0 0 0 -2.21875,-2.0312 z"/></g></svg>