<svg xmlns="http://www.w3.org/2000/svg" xmlns:xlink="http://www.w3.org/1999/xlink" version="1.1" x="0px" y="0px" viewBox="0 0 1024 1280" style="enable-background:new 0 0 1024 1024;" xml:space="preserve"><path d="M948.5,118.2v676.3c0,5.1-2.8,10.5-7.4,13c-10.9,5.8-21.9,11.6-32.8,17.3c-47.4,25-94.9,50.1-142.3,75.2  c-30,15.8-59.9,31.7-89.9,47.5c-9.9,5.3-22.6-1.2-22.6-13c0-0.4,0-0.8,0-1.2c-0.2-9.1,0-18.3,0-27.5v-81.3h-285  c-16.3,0-30-13.8-30-30V578.6c0-16.8,13.8-29.3,30-30c16.2-0.7,30,14.3,30,30v185.9h255v-535c0-5.1,2.8-10.5,7.4-13  c10.9-5.8,21.9-11.6,32.8-17.3c40.8-21.6,81.6-43.1,122.5-64.7H398.5v166.9c0,16.8-13.8,29.3-30,30c-16.2,0.7-30-14.3-30-30V104.5  c0-16.3,13.8-30,30-30c0.4,0,0.7,0,1.1,0c25.4-0.4,50.9,0,76.4,0h488.5c2.9,0.1,5.5,1.2,7.8,2.9c0.1,0.1,0.3,0.2,0.4,0.3  c1.5,1.1,2.8,2.5,3.8,4.3c0.6,1,1.1,2.2,1.4,3.3c0,0.1,0.1,0.2,0.1,0.3c0,0,0,0,0,0c0.4,1.3,0.6,2.6,0.6,3.9c0,0.4,0,0.8,0,1.2  C948.7,99.8,948.5,109,948.5,118.2z"/><path d="M456.6,405.4v73.2c0,8.1-6.9,15-15,15h-155v86.7c0,10.3-13.2,20.1-22.6,13c-7.4-5.7-14.9-11.4-22.3-17  c-32.5-24.8-65-49.7-97.5-74.5c-20.4-15.6-40.8-31.2-61.2-46.8c-9.5-7.3-9.5-18.6,0-25.9c7.4-5.7,14.9-11.4,22.3-17  c32.5-24.8,65-49.7,97.5-74.5c20.4-15.6,40.8-31.2,61.2-46.8c9.4-7.2,22.6,2.6,22.6,13v86.7h155C449.7,390,456.6,397.5,456.6,405.4z  "/></svg>